<?xml version="1.0" standalone="no"?>
<!DOCTYPE svg PUBLIC "-//W3C//DTD SVG 20010904//EN"
 "http://www.w3.org/TR/2001/REC-SVG-20010904/DTD/svg10.dtd">
<svg version="1.0" xmlns="http://www.w3.org/2000/svg"
 width="225.000000pt" height="225.000000pt" viewBox="0 0 225.000000 225.000000"
 preserveAspectRatio="xMidYMid meet">

<g transform="translate(0.000000,225.000000) scale(0.100000,-0.100000)"
fill="#000000" stroke="none">
<path d="M1160 2103 c0 -5 -23 -32 -50 -61 -28 -29 -50 -56 -50 -60 0 -4 26
-34 58 -65 l59 -58 57 62 57 61 -23 27 c-79 90 -107 115 -108 94z"/>
<path d="M918 1818 c-55 -68 -55 -64 9 -124 l58 -55 42 47 c24 26 43 52 43 58
0 12 -101 116 -112 116 -3 0 -21 -19 -40 -42z"/>
<path d="M1330 1805 c-51 -51 -53 -56 -41 -79 8 -14 28 -38 45 -55 l31 -30 59
53 c40 37 56 58 50 68 -15 25 -76 98 -83 98 -4 0 -31 -25 -61 -55z"/>
<path d="M1127 1591 l-49 -52 43 -47 c23 -26 44 -49 46 -51 5 -7 93 82 93 94
0 6 -19 32 -43 59 l-42 48 -48 -51z"/>
<path d="M730 1564 l-33 -46 54 -49 c30 -26 57 -48 60 -49 3 0 20 20 37 44
l32 44 -59 51 -58 50 -33 -45z"/>
<path d="M1559 1592 c-8 -9 -32 -32 -52 -50 -41 -36 -40 -40 6 -96 l24 -29 34
31 c19 17 44 39 57 50 l23 20 -32 46 c-18 25 -35 46 -38 45 -3 0 -13 -8 -22
-17z"/>
<path d="M952 1373 c-18 -21 -32 -43 -32 -48 0 -6 18 -29 41 -50 l41 -40 34
39 c19 22 34 42 34 46 0 8 -25 36 -61 68 l-26 22 -31 -37z"/>
<path d="M1322 1371 c-23 -21 -42 -41 -42 -45 0 -3 14 -26 32 -51 l32 -45 48
47 c53 52 53 42 -7 110 l-20 23 -43 -39z"/>
<path d="M576 1328 l-26 -43 23 -20 c13 -11 39 -32 57 -47 l34 -26 29 46 c24
39 26 47 13 54 -8 5 -21 14 -28 21 -7 7 -27 23 -45 35 l-32 22 -25 -42z"/>
<path d="M1709 1347 c-14 -12 -38 -32 -54 -44 l-28 -22 28 -46 27 -47 36 34
c20 18 39 36 42 39 3 3 13 8 22 12 16 5 15 10 -8 52 -14 25 -29 45 -32 45 -4
0 -19 -11 -33 -23z"/>
<path d="M1137 1180 c-21 -22 -37 -44 -37 -48 0 -4 17 -25 38 -45 l38 -37 37
39 c20 22 37 44 37 49 0 4 -17 25 -38 45 l-39 38 -36 -41z"/>
<path d="M791 1154 c-12 -19 -21 -39 -21 -43 0 -9 84 -81 94 -81 4 0 11 10 16
23 6 12 16 30 22 40 11 15 7 22 -31 57 -24 22 -47 40 -51 40 -5 0 -17 -16 -29
-36z"/>
<path d="M1481 1151 c-47 -40 -49 -54 -11 -99 l19 -23 46 37 c25 21 45 40 45
42 0 1 -6 15 -14 31 -27 51 -37 53 -85 12z"/>
<path d="M969 984 l-22 -36 42 -41 41 -42 25 30 c13 17 24 35 25 40 0 11 -71
85 -82 85 -4 0 -16 -16 -29 -36z"/>
<path d="M1308 986 c-44 -39 -46 -51 -13 -91 l24 -30 41 40 c38 37 54 65 28
49 -7 -4 -8 -3 -4 4 6 11 -22 62 -34 61 -3 0 -22 -15 -42 -33z"/>
<path d="M1137 805 l-29 -35 33 -38 32 -39 29 32 c15 18 28 36 28 40 0 12 -50
75 -58 74 -4 0 -20 -16 -35 -34z"/>
</g>
</svg>
